<mxfile host="app.diagrams.net" agent="Mozilla/5.0 (Windows NT 10.0; Win64; x64) AppleWebKit/537.36 (KHTML, like Gecko) Chrome/141.0.0.0 Safari/537.36 Edg/141.0.0.0" version="28.2.6">
  <diagram name="PÃ¡gina-1" id="So4qBw8gn1XQoUc89aNr">
    <mxGraphModel dx="2058" dy="2315" grid="1" gridSize="10" guides="1" tooltips="1" connect="1" arrows="1" fold="1" page="1" pageScale="1" pageWidth="827" pageHeight="1169" math="0" shadow="0">
      <root>
        <mxCell id="0" />
        <mxCell id="1" parent="0" />
        <mxCell id="4OeTVu7C39kkyASgQS9u-32" style="edgeStyle=orthogonalEdgeStyle;rounded=0;orthogonalLoop=1;jettySize=auto;html=1;entryX=1;entryY=0.5;entryDx=0;entryDy=0;" edge="1" parent="1" source="pj0uSiLMGuprIYFmuyv2-1" target="pj0uSiLMGuprIYFmuyv2-3">
          <mxGeometry relative="1" as="geometry" />
        </mxCell>
        <mxCell id="pj0uSiLMGuprIYFmuyv2-1" value="&lt;div&gt;osdu:WellActivity.1.2.0&lt;/div&gt;(Well Activity)" style="rounded=0;whiteSpace=wrap;html=1;" parent="1" vertex="1">
          <mxGeometry x="380" y="-20" width="140" height="60" as="geometry" />
        </mxCell>
        <mxCell id="pj0uSiLMGuprIYFmuyv2-2" value="&lt;div&gt;wd:Q485258&lt;/div&gt;&lt;div&gt;(federative unit of Brazil)&lt;/div&gt;" style="rounded=0;whiteSpace=wrap;html=1;" parent="1" vertex="1">
          <mxGeometry x="510" y="170" width="140" height="60" as="geometry" />
        </mxCell>
        <mxCell id="pj0uSiLMGuprIYFmuyv2-3" value="&lt;div&gt;osdu:Organisation.1.2.0&lt;/div&gt;(Organisation)" style="rounded=0;whiteSpace=wrap;html=1;" parent="1" vertex="1">
          <mxGeometry x="110" y="-20" width="140" height="60" as="geometry" />
        </mxCell>
        <mxCell id="pj0uSiLMGuprIYFmuyv2-4" value="osdu:Basin.1.2.0.md&lt;div&gt;(Basin)&lt;/div&gt;" style="rounded=0;whiteSpace=wrap;html=1;" parent="1" vertex="1">
          <mxGeometry x="510" y="260" width="140" height="60" as="geometry" />
        </mxCell>
        <mxCell id="pj0uSiLMGuprIYFmuyv2-5" value="osdu:Field.1.1.0.md&lt;div&gt;&lt;span style=&quot;background-color: transparent; color: light-dark(rgb(0, 0, 0), rgb(255, 255, 255));&quot;&gt;(Field)&lt;/span&gt;&lt;/div&gt;" style="rounded=0;whiteSpace=wrap;html=1;" parent="1" vertex="1">
          <mxGeometry x="510" y="350" width="140" height="60" as="geometry" />
        </mxCell>
        <mxCell id="pj0uSiLMGuprIYFmuyv2-7" value="pkg:formation&lt;div&gt;(Geological Formation)&lt;/div&gt;" style="rounded=0;whiteSpace=wrap;html=1;" parent="1" vertex="1">
          <mxGeometry x="870" y="410" width="140" height="60" as="geometry" />
        </mxCell>
        <mxCell id="pj0uSiLMGuprIYFmuyv2-8" value="pkg:group&lt;div&gt;(Geological Group)&lt;/div&gt;" style="rounded=0;whiteSpace=wrap;html=1;" parent="1" vertex="1">
          <mxGeometry x="1030" y="410" width="140" height="60" as="geometry" />
        </mxCell>
        <mxCell id="pj0uSiLMGuprIYFmuyv2-9" value="pkg:member&lt;div&gt;(Geological Member)&lt;/div&gt;" style="rounded=0;whiteSpace=wrap;html=1;" parent="1" vertex="1">
          <mxGeometry x="710" y="410" width="140" height="60" as="geometry" />
        </mxCell>
        <mxCell id="pj0uSiLMGuprIYFmuyv2-10" value="geo:lat&lt;div&gt;(WS84)&lt;/div&gt;" style="rounded=0;whiteSpace=wrap;html=1;" parent="1" vertex="1">
          <mxGeometry x="1070" y="80" width="140" height="60" as="geometry" />
        </mxCell>
        <mxCell id="pj0uSiLMGuprIYFmuyv2-11" value="geo:long&lt;div&gt;(&lt;span style=&quot;font-size: 11px; text-wrap-mode: nowrap; background-color: rgb(255, 255, 255);&quot;&gt;WS84&lt;/span&gt;)&lt;/div&gt;" style="rounded=0;whiteSpace=wrap;html=1;" parent="1" vertex="1">
          <mxGeometry x="1070" y="-20" width="140" height="60" as="geometry" />
        </mxCell>
        <mxCell id="pj0uSiLMGuprIYFmuyv2-13" value="xsd:string" style="rounded=0;whiteSpace=wrap;html=1;" parent="1" vertex="1">
          <mxGeometry x="1070" y="300" width="140" height="60" as="geometry" />
        </mxCell>
        <mxCell id="pj0uSiLMGuprIYFmuyv2-15" value="xsd:date" style="rounded=0;whiteSpace=wrap;html=1;" parent="1" vertex="1">
          <mxGeometry x="274" y="-140" width="140" height="60" as="geometry" />
        </mxCell>
        <mxCell id="pj0uSiLMGuprIYFmuyv2-16" value="xsd:date" style="rounded=0;whiteSpace=wrap;html=1;" parent="1" vertex="1">
          <mxGeometry x="480" y="-140" width="140" height="60" as="geometry" />
        </mxCell>
        <mxCell id="4OeTVu7C39kkyASgQS9u-1" value="osdu:Wellbore.1.5.1.md&lt;div&gt;(Well)&lt;/div&gt;" style="rounded=0;whiteSpace=wrap;html=1;" vertex="1" parent="1">
          <mxGeometry x="870" y="260" width="140" height="60" as="geometry" />
        </mxCell>
        <mxCell id="4OeTVu7C39kkyASgQS9u-31" value="xsd:string" style="rounded=0;whiteSpace=wrap;html=1;" vertex="1" parent="1">
          <mxGeometry x="1070" y="220" width="140" height="60" as="geometry" />
        </mxCell>
        <mxCell id="4OeTVu7C39kkyASgQS9u-34" value="osdu:Well.1.4.0.md&lt;div&gt;(Well Head)&lt;/div&gt;" style="rounded=0;whiteSpace=wrap;html=1;" vertex="1" parent="1">
          <mxGeometry x="870" y="100" width="140" height="60" as="geometry" />
        </mxCell>
      </root>
    </mxGraphModel>
  </diagram>
</mxfile>
